<mxfile modified="2023-12-26T12:44:04.733Z" host="app.diagrams.net" agent="Mozilla/5.0 (Macintosh; Intel Mac OS X 10_15_7) AppleWebKit/537.36 (KHTML, like Gecko) Chrome/120.0.0.0 Safari/537.36" etag="4WLoblP4oJa8726RSsCr" version="22.1.11" type="github">
  <diagram id="Ht1M8jgEwFfnCIfOTk4-" name="Page-1">
    <mxGraphModel dx="1274" dy="1498" grid="1" gridSize="10" guides="1" tooltips="1" connect="1" arrows="1" fold="1" page="1" pageScale="1" pageWidth="1169" pageHeight="827" math="0" shadow="0">
      <root>
        <mxCell id="0" />
        <mxCell id="1" parent="0" />
        <mxCell id="KrqiIA9UIO2b-dDR9KMm-3" value="" style="sketch=0;outlineConnect=0;fontColor=#232F3E;gradientColor=none;fillColor=#C925D1;strokeColor=none;dashed=0;verticalLabelPosition=bottom;verticalAlign=top;align=center;html=1;fontSize=12;fontStyle=0;aspect=fixed;pointerEvents=1;shape=mxgraph.aws4.rds_mariadb_instance;" parent="1" vertex="1">
          <mxGeometry x="560" y="320" width="78" height="78" as="geometry" />
        </mxCell>
        <mxCell id="KrqiIA9UIO2b-dDR9KMm-9" value="" style="verticalLabelPosition=bottom;html=1;verticalAlign=top;strokeWidth=1;align=center;outlineConnect=0;dashed=0;outlineConnect=0;shape=mxgraph.aws3d.application;fillColor=#4286c5;strokeColor=#57A2D8;aspect=fixed;" parent="1" vertex="1">
          <mxGeometry x="360" y="390" width="80.29" height="89.1" as="geometry" />
        </mxCell>
        <mxCell id="KrqiIA9UIO2b-dDR9KMm-12" value="" style="sketch=0;outlineConnect=0;fontColor=#232F3E;gradientColor=none;fillColor=#C925D1;strokeColor=none;dashed=0;verticalLabelPosition=bottom;verticalAlign=top;align=center;html=1;fontSize=12;fontStyle=0;aspect=fixed;pointerEvents=1;shape=mxgraph.aws4.rds_mariadb_instance;" parent="1" vertex="1">
          <mxGeometry x="560" y="480" width="78" height="78" as="geometry" />
        </mxCell>
        <mxCell id="KrqiIA9UIO2b-dDR9KMm-17" value="소스 서버 / 레플리카 서버" style="text;html=1;strokeColor=none;fillColor=none;align=center;verticalAlign=middle;whiteSpace=wrap;rounded=0;" parent="1" vertex="1">
          <mxGeometry x="533.26" y="290" width="131.5" height="30" as="geometry" />
        </mxCell>
        <mxCell id="KrqiIA9UIO2b-dDR9KMm-18" value="소스 서버 / 레플리카 서버" style="text;html=1;strokeColor=none;fillColor=none;align=center;verticalAlign=middle;whiteSpace=wrap;rounded=0;" parent="1" vertex="1">
          <mxGeometry x="525.63" y="558" width="146.75" height="30" as="geometry" />
        </mxCell>
        <mxCell id="KrqiIA9UIO2b-dDR9KMm-19" value="" style="endArrow=classic;html=1;rounded=0;" parent="1" source="KrqiIA9UIO2b-dDR9KMm-9" edge="1">
          <mxGeometry width="50" height="50" relative="1" as="geometry">
            <mxPoint x="450" y="450" as="sourcePoint" />
            <mxPoint x="560" y="360" as="targetPoint" />
          </mxGeometry>
        </mxCell>
        <mxCell id="KrqiIA9UIO2b-dDR9KMm-22" value="" style="endArrow=classic;html=1;rounded=0;" parent="1" source="KrqiIA9UIO2b-dDR9KMm-9" edge="1">
          <mxGeometry width="50" height="50" relative="1" as="geometry">
            <mxPoint x="440.29" y="468.49" as="sourcePoint" />
            <mxPoint x="560" y="517.5174714888792" as="targetPoint" />
          </mxGeometry>
        </mxCell>
        <mxCell id="KrqiIA9UIO2b-dDR9KMm-26" value="" style="endArrow=classic;html=1;rounded=0;" parent="1" edge="1">
          <mxGeometry width="50" height="50" relative="1" as="geometry">
            <mxPoint x="617.68" y="398" as="sourcePoint" />
            <mxPoint x="617.0015077330269" y="480.0975643037457" as="targetPoint" />
          </mxGeometry>
        </mxCell>
        <mxCell id="KrqiIA9UIO2b-dDR9KMm-28" value="Replication" style="text;html=1;strokeColor=none;fillColor=none;align=center;verticalAlign=middle;whiteSpace=wrap;rounded=0;" parent="1" vertex="1">
          <mxGeometry x="618.05" y="422.55" width="70.5" height="30" as="geometry" />
        </mxCell>
        <mxCell id="_S6PLE4c619Yn40ShSeJ-40" value="" style="verticalLabelPosition=bottom;html=1;verticalAlign=top;strokeWidth=1;align=center;outlineConnect=0;dashed=0;outlineConnect=0;shape=mxgraph.aws3d.application;fillColor=#4286c5;strokeColor=#57A2D8;aspect=fixed;" vertex="1" parent="1">
          <mxGeometry x="360" y="-285.55" width="80.29" height="89.1" as="geometry" />
        </mxCell>
        <mxCell id="_S6PLE4c619Yn40ShSeJ-41" value="" style="sketch=0;outlineConnect=0;fontColor=#232F3E;gradientColor=none;fillColor=#C925D1;strokeColor=none;dashed=0;verticalLabelPosition=bottom;verticalAlign=top;align=center;html=1;fontSize=12;fontStyle=0;aspect=fixed;pointerEvents=1;shape=mxgraph.aws4.rds_mariadb_instance;" vertex="1" parent="1">
          <mxGeometry x="524.55" y="-280" width="78" height="78" as="geometry" />
        </mxCell>
        <mxCell id="_S6PLE4c619Yn40ShSeJ-45" value="" style="sketch=0;outlineConnect=0;fontColor=#232F3E;gradientColor=none;fillColor=#C925D1;strokeColor=none;dashed=0;verticalLabelPosition=bottom;verticalAlign=top;align=center;html=1;fontSize=12;fontStyle=0;aspect=fixed;pointerEvents=1;shape=mxgraph.aws4.rds_mariadb_instance;" vertex="1" parent="1">
          <mxGeometry x="524.55" y="-400" width="78" height="78" as="geometry" />
        </mxCell>
        <mxCell id="_S6PLE4c619Yn40ShSeJ-57" value="" style="sketch=0;outlineConnect=0;fontColor=#232F3E;gradientColor=none;fillColor=#C925D1;strokeColor=none;dashed=0;verticalLabelPosition=bottom;verticalAlign=top;align=center;html=1;fontSize=12;fontStyle=0;aspect=fixed;pointerEvents=1;shape=mxgraph.aws4.rds_mariadb_instance;" vertex="1" parent="1">
          <mxGeometry x="524.55" y="-159.99999999999997" width="78" height="78" as="geometry" />
        </mxCell>
        <mxCell id="_S6PLE4c619Yn40ShSeJ-59" value="" style="sketch=0;outlineConnect=0;fontColor=#232F3E;gradientColor=none;fillColor=#C925D1;strokeColor=none;dashed=0;verticalLabelPosition=bottom;verticalAlign=top;align=center;html=1;fontSize=12;fontStyle=0;aspect=fixed;pointerEvents=1;shape=mxgraph.aws4.rds_mariadb_instance;" vertex="1" parent="1">
          <mxGeometry x="677.5" y="-278.45" width="78" height="78" as="geometry" />
        </mxCell>
        <mxCell id="_S6PLE4c619Yn40ShSeJ-65" value="" style="endArrow=classic;html=1;rounded=0;endSize=9;" edge="1" parent="1" target="_S6PLE4c619Yn40ShSeJ-45">
          <mxGeometry width="50" height="50" relative="1" as="geometry">
            <mxPoint x="442.55" y="-262.3379250558419" as="sourcePoint" />
            <mxPoint x="521.5539999999999" y="-340.00073098178336" as="targetPoint" />
          </mxGeometry>
        </mxCell>
        <mxCell id="_S6PLE4c619Yn40ShSeJ-66" value="" style="endArrow=classic;html=1;rounded=0;" edge="1" parent="1" source="_S6PLE4c619Yn40ShSeJ-40" target="_S6PLE4c619Yn40ShSeJ-41">
          <mxGeometry width="50" height="50" relative="1" as="geometry">
            <mxPoint x="443.55" y="-241" as="sourcePoint" />
            <mxPoint x="504.05" y="-233.90363636363625" as="targetPoint" />
          </mxGeometry>
        </mxCell>
        <mxCell id="_S6PLE4c619Yn40ShSeJ-67" value="" style="endArrow=classic;html=1;rounded=0;exitX=1.051;exitY=0.879;exitDx=0;exitDy=0;exitPerimeter=0;" edge="1" parent="1" target="_S6PLE4c619Yn40ShSeJ-57">
          <mxGeometry width="50" height="50" relative="1" as="geometry">
            <mxPoint x="440.28800000000007" y="-220.00195374223927" as="sourcePoint" />
            <mxPoint x="518.31" y="-128.47853667189725" as="targetPoint" />
          </mxGeometry>
        </mxCell>
        <mxCell id="_S6PLE4c619Yn40ShSeJ-69" value="소스 서버 3" style="text;html=1;strokeColor=none;fillColor=none;align=center;verticalAlign=middle;whiteSpace=wrap;rounded=0;" vertex="1" parent="1">
          <mxGeometry x="483.68" y="-82" width="159.75" height="30" as="geometry" />
        </mxCell>
        <mxCell id="_S6PLE4c619Yn40ShSeJ-70" value="소스 서버 2" style="text;html=1;strokeColor=none;fillColor=none;align=center;verticalAlign=middle;whiteSpace=wrap;rounded=0;" vertex="1" parent="1">
          <mxGeometry x="504.05" y="-202" width="121" height="30" as="geometry" />
        </mxCell>
        <mxCell id="_S6PLE4c619Yn40ShSeJ-71" value="소스 서버 1" style="text;html=1;strokeColor=none;fillColor=none;align=center;verticalAlign=middle;whiteSpace=wrap;rounded=0;" vertex="1" parent="1">
          <mxGeometry x="504.05" y="-322" width="121" height="30" as="geometry" />
        </mxCell>
        <mxCell id="_S6PLE4c619Yn40ShSeJ-73" value="레플리카 서버" style="text;html=1;strokeColor=none;fillColor=none;align=center;verticalAlign=middle;whiteSpace=wrap;rounded=0;" vertex="1" parent="1">
          <mxGeometry x="646.75" y="-200.45" width="139.5" height="30" as="geometry" />
        </mxCell>
        <mxCell id="_S6PLE4c619Yn40ShSeJ-74" value="" style="endArrow=classic;html=1;rounded=0;" edge="1" parent="1">
          <mxGeometry width="50" height="50" relative="1" as="geometry">
            <mxPoint x="602.55" y="-361" as="sourcePoint" />
            <mxPoint x="678" y="-257" as="targetPoint" />
          </mxGeometry>
        </mxCell>
        <mxCell id="_S6PLE4c619Yn40ShSeJ-75" value="" style="endArrow=classic;html=1;rounded=0;" edge="1" parent="1" source="_S6PLE4c619Yn40ShSeJ-41" target="_S6PLE4c619Yn40ShSeJ-59">
          <mxGeometry width="50" height="50" relative="1" as="geometry">
            <mxPoint x="599.5" y="-235.55" as="sourcePoint" />
            <mxPoint x="649.5" y="-285.55" as="targetPoint" />
          </mxGeometry>
        </mxCell>
        <mxCell id="_S6PLE4c619Yn40ShSeJ-76" value="" style="endArrow=classic;html=1;rounded=0;" edge="1" parent="1">
          <mxGeometry width="50" height="50" relative="1" as="geometry">
            <mxPoint x="601" y="-117" as="sourcePoint" />
            <mxPoint x="679" y="-220" as="targetPoint" />
          </mxGeometry>
        </mxCell>
        <mxCell id="_S6PLE4c619Yn40ShSeJ-81" value="" style="endArrow=classic;html=1;rounded=0;" edge="1" parent="1">
          <mxGeometry width="50" height="50" relative="1" as="geometry">
            <mxPoint x="585.0015077330269" y="480.0975643037457" as="sourcePoint" />
            <mxPoint x="585.68" y="398" as="targetPoint" />
          </mxGeometry>
        </mxCell>
        <mxCell id="_S6PLE4c619Yn40ShSeJ-82" value="Replication" style="text;html=1;strokeColor=none;fillColor=none;align=center;verticalAlign=middle;whiteSpace=wrap;rounded=0;" vertex="1" parent="1">
          <mxGeometry x="514" y="422.55" width="70.5" height="30" as="geometry" />
        </mxCell>
      </root>
    </mxGraphModel>
  </diagram>
</mxfile>
